<mxfile host="65bd71144e" pages="3">
    <diagram name="AskACatItsAge" id="DpLw6PZjZQ7TQEPxX2lx">
        <mxGraphModel dx="847" dy="427" grid="1" gridSize="10" guides="1" tooltips="1" connect="1" arrows="1" fold="1" page="1" pageScale="1" pageWidth="827" pageHeight="1169" math="0" shadow="0">
            <root>
                <mxCell id="TSDw7aBspsEVQ6Ing-Lo-0"/>
                <mxCell id="TSDw7aBspsEVQ6Ing-Lo-1" parent="TSDw7aBspsEVQ6Ing-Lo-0"/>
                <mxCell id="TSDw7aBspsEVQ6Ing-Lo-2" value="&lt;p style=&quot;margin: 0px ; margin-top: 4px ; text-align: center&quot;&gt;&lt;b&gt;SuperCat&lt;/b&gt;&lt;/p&gt;&lt;hr size=&quot;1&quot;&gt;&lt;p style=&quot;margin: 0px ; margin-left: 4px&quot;&gt;# name: String&lt;/p&gt;&lt;hr size=&quot;1&quot;&gt;&lt;p style=&quot;margin: 0px ; margin-left: 4px&quot;&gt;&lt;span&gt;+ getName(pet:Pet): String&lt;/span&gt;&lt;br&gt;&lt;/p&gt;&lt;p style=&quot;margin: 0px ; margin-left: 4px&quot;&gt;+ askACatItsName(): String&lt;br&gt;&lt;/p&gt;&lt;p style=&quot;margin: 0px ; margin-left: 4px&quot;&gt;+ askACatItsAge(): String&lt;br&gt;&lt;/p&gt;&lt;p style=&quot;margin: 0px ; margin-left: 4px&quot;&gt;+ petSounds(): String&lt;br&gt;&lt;/p&gt;" style="verticalAlign=top;align=left;overflow=fill;fontSize=12;fontFamily=Helvetica;html=1;" parent="TSDw7aBspsEVQ6Ing-Lo-1" vertex="1">
                    <mxGeometry x="474" y="280" width="160" height="120" as="geometry"/>
                </mxCell>
                <mxCell id="TSDw7aBspsEVQ6Ing-Lo-3" value="&lt;p style=&quot;margin: 0px ; margin-top: 4px ; text-align: center&quot;&gt;&lt;b&gt;&amp;lt;&amp;lt;static&amp;gt;&amp;gt;&lt;/b&gt;&lt;b&gt;&lt;br&gt;&lt;/b&gt;&lt;/p&gt;&lt;p style=&quot;margin: 0px ; margin-top: 4px ; text-align: center&quot;&gt;&lt;b&gt;Controller&lt;/b&gt;&lt;/p&gt;&lt;hr size=&quot;1&quot;&gt;&lt;p style=&quot;margin: 0px ; margin-left: 4px&quot;&gt;&lt;u&gt;- catsList: ArrayList&amp;lt;SuperCat&amp;gt;&lt;/u&gt;&lt;/p&gt;&amp;nbsp;&lt;u&gt;- dogsList: ArrayList&amp;lt;Dog&amp;gt;&lt;/u&gt;&lt;br&gt;&amp;nbsp;&lt;u&gt;- random: Random&lt;/u&gt;&lt;br&gt;&lt;hr size=&quot;1&quot;&gt;&lt;p style=&quot;margin: 0px ; margin-left: 4px&quot;&gt;&lt;u&gt;+ addNewCat(arr:String []):void&lt;/u&gt;&lt;br&gt;&lt;/p&gt;&lt;p style=&quot;margin: 0px ; margin-left: 4px&quot;&gt;&lt;u&gt;+ addNewTomcat(arr:String []):void&lt;/u&gt;&lt;/p&gt;&lt;p style=&quot;margin: 0px ; margin-left: 4px&quot;&gt;&lt;u&gt;+ addNewDog(name:String): void&lt;br&gt;&lt;/u&gt;&lt;/p&gt;&lt;p style=&quot;margin: 0px ; margin-left: 4px&quot;&gt;&lt;u&gt;+ getSomeRandomDog(): Dog&lt;br&gt;&lt;/u&gt;&lt;/p&gt;&lt;p style=&quot;margin: 0px ; margin-left: 4px&quot;&gt;&lt;u&gt;+ getSomeRandomFelidae(): SuperCat&lt;/u&gt;&lt;/p&gt;&lt;p style=&quot;margin: 0px ; margin-left: 4px&quot;&gt;&lt;br&gt;&lt;/p&gt;" style="verticalAlign=top;align=left;overflow=fill;fontSize=12;fontFamily=Helvetica;html=1;" parent="TSDw7aBspsEVQ6Ing-Lo-1" vertex="1">
                    <mxGeometry x="240" y="800" width="240" height="190" as="geometry"/>
                </mxCell>
                <mxCell id="TSDw7aBspsEVQ6Ing-Lo-4" value="&lt;p style=&quot;margin: 0px ; margin-top: 4px ; text-align: center&quot;&gt;&lt;b&gt;Dog&lt;/b&gt;&lt;/p&gt;&lt;hr size=&quot;1&quot;&gt;&lt;p style=&quot;margin: 0px ; margin-left: 4px&quot;&gt;- name: String&lt;/p&gt;&lt;hr size=&quot;1&quot;&gt;&lt;p style=&quot;margin: 0px ; margin-left: 4px&quot;&gt;&lt;span&gt;+ getName(): String&lt;/span&gt;&lt;/p&gt;&lt;p style=&quot;margin: 0px ; margin-left: 4px&quot;&gt;&lt;span&gt;+ askACatItsName(): String&lt;/span&gt;&lt;br&gt;&lt;/p&gt;&lt;p style=&quot;margin: 0px ; margin-left: 4px&quot;&gt;+ petSounds(): String&lt;br&gt;&lt;/p&gt;" style="verticalAlign=top;align=left;overflow=fill;fontSize=12;fontFamily=Helvetica;html=1;" parent="TSDw7aBspsEVQ6Ing-Lo-1" vertex="1">
                    <mxGeometry x="150" y="280" width="160" height="110" as="geometry"/>
                </mxCell>
                <mxCell id="TSDw7aBspsEVQ6Ing-Lo-5" value="&lt;p style=&quot;margin: 0px ; margin-top: 4px ; text-align: center&quot;&gt;&lt;b&gt;&amp;lt;&amp;lt; abstract &amp;gt;&amp;gt;&lt;/b&gt;&lt;/p&gt;&lt;p style=&quot;margin: 0px ; margin-top: 4px ; text-align: center&quot;&gt;&lt;b&gt;&lt;i&gt;Pet&lt;/i&gt;&lt;/b&gt;&lt;/p&gt;&lt;hr size=&quot;1&quot;&gt;&lt;p style=&quot;margin: 0px ; margin-left: 4px&quot;&gt;&lt;span&gt;+ petSounds(): String&lt;/span&gt;&lt;br&gt;&lt;/p&gt;" style="verticalAlign=top;align=left;overflow=fill;fontSize=12;fontFamily=Helvetica;html=1;" parent="TSDw7aBspsEVQ6Ing-Lo-1" vertex="1">
                    <mxGeometry x="354" y="60" width="120" height="70" as="geometry"/>
                </mxCell>
                <mxCell id="TSDw7aBspsEVQ6Ing-Lo-6" value="Extends" style="endArrow=block;endSize=16;endFill=0;html=1;exitX=0.5;exitY=0;exitDx=0;exitDy=0;" parent="TSDw7aBspsEVQ6Ing-Lo-1" source="TSDw7aBspsEVQ6Ing-Lo-2" target="TSDw7aBspsEVQ6Ing-Lo-5" edge="1">
                    <mxGeometry width="160" relative="1" as="geometry">
                        <mxPoint x="420" y="130" as="sourcePoint"/>
                        <mxPoint x="410" y="140" as="targetPoint"/>
                    </mxGeometry>
                </mxCell>
                <mxCell id="TSDw7aBspsEVQ6Ing-Lo-7" value="Extends" style="endArrow=block;endSize=16;endFill=0;html=1;exitX=0.5;exitY=0;exitDx=0;exitDy=0;" parent="TSDw7aBspsEVQ6Ing-Lo-1" source="TSDw7aBspsEVQ6Ing-Lo-4" target="TSDw7aBspsEVQ6Ing-Lo-5" edge="1">
                    <mxGeometry width="160" relative="1" as="geometry">
                        <mxPoint x="80" y="150" as="sourcePoint"/>
                        <mxPoint x="240" y="150" as="targetPoint"/>
                    </mxGeometry>
                </mxCell>
                <mxCell id="TSDw7aBspsEVQ6Ing-Lo-8" value="return" style="html=1;verticalAlign=bottom;endArrow=open;dashed=1;endSize=8;entryX=0.463;entryY=0.994;entryDx=0;entryDy=0;entryPerimeter=0;exitX=-0.005;exitY=0.651;exitDx=0;exitDy=0;exitPerimeter=0;" parent="TSDw7aBspsEVQ6Ing-Lo-1" source="TSDw7aBspsEVQ6Ing-Lo-3" target="TSDw7aBspsEVQ6Ing-Lo-4" edge="1">
                    <mxGeometry relative="1" as="geometry">
                        <mxPoint x="50" y="460" as="sourcePoint"/>
                        <mxPoint x="-30" y="460" as="targetPoint"/>
                        <Array as="points">
                            <mxPoint x="220" y="924"/>
                        </Array>
                    </mxGeometry>
                </mxCell>
                <mxCell id="TSDw7aBspsEVQ6Ing-Lo-10" value="&lt;p style=&quot;margin: 0px ; margin-top: 4px ; text-align: center&quot;&gt;&lt;b&gt;Cat&lt;/b&gt;&lt;/p&gt;&lt;hr size=&quot;1&quot;&gt;&lt;p style=&quot;margin: 0px ; margin-left: 4px&quot;&gt;- age: int&lt;/p&gt;&lt;p style=&quot;margin: 0px ; margin-left: 4px&quot;&gt;- level: int&lt;br&gt;&lt;/p&gt;&lt;hr size=&quot;1&quot;&gt;&lt;p style=&quot;margin: 0px ; margin-left: 4px&quot;&gt;+ tellYourAge(felidae:SuperCat&lt;span&gt;): String&lt;/span&gt;&lt;/p&gt;&lt;p style=&quot;margin: 0px ; margin-left: 4px&quot;&gt;-&amp;nbsp;checkEscalation(): String&lt;/p&gt;" style="verticalAlign=top;align=left;overflow=fill;fontSize=12;fontFamily=Helvetica;html=1;" parent="TSDw7aBspsEVQ6Ing-Lo-1" vertex="1">
                    <mxGeometry x="560" y="560" width="220" height="110" as="geometry"/>
                </mxCell>
                <mxCell id="TSDw7aBspsEVQ6Ing-Lo-11" value="&lt;p style=&quot;margin: 0px ; margin-top: 4px ; text-align: center&quot;&gt;&lt;b&gt;Tomcat&lt;/b&gt;&lt;/p&gt;&lt;hr size=&quot;1&quot;&gt;&lt;p style=&quot;margin: 0px ; margin-left: 4px&quot;&gt;- age: int&lt;/p&gt;&lt;hr size=&quot;1&quot;&gt;&lt;p style=&quot;margin: 0px ; margin-left: 4px&quot;&gt;&lt;span&gt;+ tellYourAge(felidae:SuperCat&lt;/span&gt;&lt;span&gt;): String&lt;/span&gt;&lt;/p&gt;&lt;p style=&quot;margin: 0px ; margin-left: 4px&quot;&gt;&lt;br&gt;&lt;/p&gt;" style="verticalAlign=top;align=left;overflow=fill;fontSize=12;fontFamily=Helvetica;html=1;" parent="TSDw7aBspsEVQ6Ing-Lo-1" vertex="1">
                    <mxGeometry x="320" y="560" width="220" height="80" as="geometry"/>
                </mxCell>
                <mxCell id="TSDw7aBspsEVQ6Ing-Lo-12" value="Extends" style="endArrow=block;endSize=16;endFill=0;html=1;exitX=0.425;exitY=-0.007;exitDx=0;exitDy=0;exitPerimeter=0;entryX=0.33;entryY=0.997;entryDx=0;entryDy=0;entryPerimeter=0;" parent="TSDw7aBspsEVQ6Ing-Lo-1" source="TSDw7aBspsEVQ6Ing-Lo-11" target="TSDw7aBspsEVQ6Ing-Lo-2" edge="1">
                    <mxGeometry width="160" relative="1" as="geometry">
                        <mxPoint x="414" y="480" as="sourcePoint"/>
                        <mxPoint x="580" y="430" as="targetPoint"/>
                    </mxGeometry>
                </mxCell>
                <mxCell id="TSDw7aBspsEVQ6Ing-Lo-13" value="Extends" style="endArrow=block;endSize=16;endFill=0;html=1;exitX=0.5;exitY=0;exitDx=0;exitDy=0;" parent="TSDw7aBspsEVQ6Ing-Lo-1" source="TSDw7aBspsEVQ6Ing-Lo-10" target="TSDw7aBspsEVQ6Ing-Lo-2" edge="1">
                    <mxGeometry width="160" relative="1" as="geometry">
                        <mxPoint x="890" y="580" as="sourcePoint"/>
                        <mxPoint x="560" y="401" as="targetPoint"/>
                    </mxGeometry>
                </mxCell>
                <mxCell id="TSDw7aBspsEVQ6Ing-Lo-14" value="return" style="html=1;verticalAlign=bottom;endArrow=open;dashed=1;endSize=8;exitX=1.007;exitY=0.72;exitDx=0;exitDy=0;exitPerimeter=0;entryX=0.5;entryY=1;entryDx=0;entryDy=0;" parent="TSDw7aBspsEVQ6Ing-Lo-1" source="TSDw7aBspsEVQ6Ing-Lo-3" target="TSDw7aBspsEVQ6Ing-Lo-10" edge="1">
                    <mxGeometry x="0.5653" relative="1" as="geometry">
                        <mxPoint x="590" y="920" as="sourcePoint"/>
                        <mxPoint x="670" y="681" as="targetPoint"/>
                        <Array as="points">
                            <mxPoint x="670" y="937"/>
                        </Array>
                        <mxPoint as="offset"/>
                    </mxGeometry>
                </mxCell>
                <mxCell id="xNfgmVE5-HW8Do-5377U-2" value="return" style="html=1;verticalAlign=bottom;endArrow=open;dashed=1;endSize=8;exitX=1.006;exitY=0.632;exitDx=0;exitDy=0;exitPerimeter=0;entryX=0.5;entryY=1;entryDx=0;entryDy=0;" parent="TSDw7aBspsEVQ6Ing-Lo-1" source="TSDw7aBspsEVQ6Ing-Lo-3" target="TSDw7aBspsEVQ6Ing-Lo-11" edge="1">
                    <mxGeometry x="0.7993" relative="1" as="geometry">
                        <mxPoint x="450" y="896" as="sourcePoint"/>
                        <mxPoint x="479" y="640" as="targetPoint"/>
                        <Array as="points">
                            <mxPoint x="500" y="920"/>
                            <mxPoint x="500" y="720"/>
                            <mxPoint x="430" y="720"/>
                        </Array>
                        <mxPoint as="offset"/>
                    </mxGeometry>
                </mxCell>
            </root>
        </mxGraphModel>
    </diagram>
</mxfile>